<?xml version="1.0" standalone="no"?>
<!DOCTYPE svg PUBLIC "-//W3C//DTD SVG 20010904//EN"
 "http://www.w3.org/TR/2001/REC-SVG-20010904/DTD/svg10.dtd">
<svg version="1.0" xmlns="http://www.w3.org/2000/svg"
 width="628.000000pt" height="683.000000pt" viewBox="0 0 628.000000 683.000000"
 preserveAspectRatio="xMidYMid meet">
<metadata>
Created by potrace 1.16, written by Peter Selinger 2001-2019
</metadata>
<g transform="translate(0.000000,683.000000) scale(0.100000,-0.100000)"
fill="#000000" stroke="none">
<path d="M2221 6537 c-51 -20 -106 -71 -132 -124 l-24 -48 0 -1351 0 -1351 30
-48 c46 -74 101 -108 181 -113 81 -5 137 14 189 66 81 79 75 -23 75 1250 0
622 3 1132 8 1132 4 0 327 -110 717 -244 l710 -244 5 -1288 5 -1289 22 -41
c101 -189 345 -190 446 -1 l22 42 0 1415 0 1415 -22 42 c-12 22 -42 58 -65 79
-40 34 -124 64 -1028 371 -1029 349 -1063 359 -1139 330z"/>
<path d="M1102 4045 c-434 -81 -762 -379 -879 -801 -25 -91 -28 -114 -28 -279
0 -153 3 -193 22 -266 111 -434 465 -759 900 -824 78 -12 217 -15 667 -15
l568 0 -130 -139 c-72 -76 -138 -154 -148 -172 -28 -51 -26 -180 3 -235 28
-52 90 -108 138 -124 51 -17 141 -9 195 18 57 28 712 709 750 779 35 66 38
153 8 215 -27 56 -702 766 -758 797 -121 68 -299 8 -347 -117 -23 -61 -22
-145 4 -202 12 -28 63 -91 129 -160 60 -64 120 -128 134 -143 l25 -28 -585 3
-585 3 -81 28 c-352 118 -520 505 -363 837 83 176 248 302 439 336 41 7 143
13 226 14 142 0 153 1 203 26 91 46 152 159 135 253 -14 75 -69 151 -138 189
-26 14 -63 17 -231 19 -134 1 -224 -3 -273 -12z"/>
<path d="M4917 4046 c-86 -32 -140 -96 -159 -190 -10 -46 -9 -63 5 -109 36
-114 117 -169 267 -181 104 -8 225 -48 302 -100 118 -78 217 -217 252 -352 20
-78 21 -231 1 -304 -55 -207 -221 -375 -431 -437 -53 -15 -137 -18 -794 -23
-819 -6 -758 0 -832 -77 -48 -49 -68 -99 -68 -165 1 -92 52 -177 135 -221 40
-22 40 -22 805 -22 l765 0 96 27 c213 58 376 151 519 297 135 136 222 284 274
465 173 594 -184 1220 -781 1372 -123 31 -300 41 -356 20z"/>
<path d="M4156 1474 c-32 -10 -64 -31 -96 -63 -71 -71 -80 -110 -80 -348 0
-177 -1 -193 -18 -193 -9 0 -405 -45 -880 -100 -945 -110 -909 -103 -975 -180
-91 -107 -70 -289 43 -364 86 -56 53 -58 1090 63 1061 125 1072 126 1109 145
38 20 79 64 105 111 20 39 21 51 21 400 0 351 -1 361 -22 401 -31 59 -93 110
-154 128 -63 19 -80 19 -143 0z"/>
</g>
</svg>
